<?xml version="1.0" encoding="utf-8"?>
<!-- Generator: Adobe Illustrator 16.0.0, SVG Export Plug-In . SVG Version: 6.00 Build 0)  -->
<!DOCTYPE svg PUBLIC "-//W3C//DTD SVG 1.1//EN" "http://www.w3.org/Graphics/SVG/1.1/DTD/svg11.dtd">
<svg version="1.1" id="Layer_1" xmlns="http://www.w3.org/2000/svg" xmlns:xlink="http://www.w3.org/1999/xlink" x="0px" y="0px"
	 width="22px" height="20px" viewBox="0 0 22 20" enable-background="new 0 0 22 20" xml:space="preserve">
<path fill="#FFFFFF" d="M20.925,3.641H3.863L3.61,0.816C3.568,0.354,3.181,0,2.717,0h-1.82C0.402,0,0.001,0.401,0.001,0.896
	s0.401,0.896,0.896,0.896h1l1.031,11.483c0.073,0.828,0.52,1.726,1.291,2.336C2.83,17.385,4.099,20,6.359,20
	c1.875,0,3.197-1.87,2.554-3.643h4.905C13.176,18.128,14.495,20,16.373,20c1.5-0.002,2.715-1.217,2.717-2.717
	c-0.002-1.5-1.217-2.716-2.717-2.717H6.365c-0.681,0-1.274-0.41-1.53-1.01l14.321-0.842c0.391-0.022,0.722-0.297,0.816-0.677
	l1.821-7.283c0.12-0.48-0.173-0.967-0.653-1.087C21.07,3.65,20.997,3.641,20.925,3.641L20.925,3.641z M6.358,18.208
	c-0.511-0.024-0.906-0.457-0.882-0.968c0.022-0.479,0.404-0.859,0.882-0.883c0.511,0.024,0.906,0.458,0.882,0.969
	C7.218,17.804,6.835,18.186,6.358,18.208z M16.373,18.208c-0.511-0.024-0.906-0.457-0.882-0.968
	c0.022-0.479,0.404-0.859,0.882-0.883c0.511,0.024,0.906,0.458,0.882,0.969C17.232,17.804,16.851,18.186,16.373,18.208z
	 M18.395,10.965l-13.8,0.811l-0.57-6.341h15.753L18.395,10.965L18.395,10.965z"/>
</svg>
